PathFileType	4	(X/Y/Z)	Patient4_TMGait_0pt4_01_right_16.trc.trc
DataRate	CameraRate	NumFrames	NumMarkers	Units	OrigDataRate	OrigDataStartFrame	OrigNumFrames
75.675675675676	75.675675675676	6	33	mm	75.675675675676	1	       141
Frame#	Time	Sacral			L.Shoulder			Chest			R.Shoulder			Neck			R.ASIS			L.ASIS			R.Thigh.Superior			R.Thigh.Lateral			R.Thigh.Inferior			R.Patella			L.Thigh.Superior			L.Thigh.Lateral			L.Thigh.Inferior			L.Patella			L.Shank.Superior			L.Shank.Lateral			L.Shank.Inferior			R.Shank.Superior			R.Shank.Lateral			R.Shank.Inferior			R.Heel			R.Midfoot.Superior			R.Midfoot.Lateral			R.Toe			L.Heel			L.Midfoot.Lateral			L.Midfoot.Superior			L.Toe			L.Elbow			L.Wrist			R.Elbow			R.Wrist			
		X1	Y1	Z1	X2	Y2	Z2	X3	Y3	Z3	X4	Y4	Z4	X5	Y5	Z5	X6	Y6	Z6	X7	Y7	Z7	X8	Y8	Z8	X9	Y9	Z9	X10	Y10	Z10	X11	Y11	Z11	X12	Y12	Z12	X13	Y13	Z13	X14	Y14	Z14	X15	Y15	Z15	X16	Y16	Z16	X17	Y17	Z17	X18	Y18	Z18	X19	Y19	Z19	X20	Y20	Z20	X21	Y21	Z21	X22	Y22	Z22	X23	Y23	Z23	X24	Y24	Z24	X25	Y25	Z25	X26	Y26	Z26	X27	Y27	Z27	X28	Y28	Z28	X29	Y29	Z29	X30	Y30	Z30	X31	Y31	Z31	X32	Y32	Z32	X33	Y33	Z33	

1	20.630000000000	735.177803930338	1011.582079999338	393.060323146980	897.230764201676	1432.673234581553	179.680715758542	1018.389219117824	1370.136739987585	330.051688591672	955.622683077542	1449.688109900351	510.868153387888	899.370931706576	1499.480430633980	344.041093588293	972.873018677308	945.421258303763	484.132317606939	930.007262924814	966.326959272470	213.632572848966	1037.711486390598	762.410563414215	457.755991836319	987.821968640610	645.060842163794	536.857758739283	1070.818336080745	596.575062149283	455.670916589724	1078.732845206695	483.993350300536	479.845253989856	974.522365824764	752.440206043456	228.332939284139	875.110119748606	639.350210296237	183.459622517305	968.081454433004	560.157707466083	229.579234524844	968.056668525649	491.776195903196	237.975872648096	941.367341528424	420.144932321092	235.256284536569	845.093259790711	304.757147076488	199.651834315748	909.818496226467	194.677202045100	263.018406317961	999.415231686665	414.789251603415	490.046206105682	879.236168207744	381.161153469226	556.012610920736	858.569403958620	272.657619489982	508.821441765882	653.776677339100	213.484466576097	490.153764478440	825.562233727159	159.062374198254	526.483113241803	716.367949419737	155.368911732654	561.720271481821	891.645146359128	45.917524283376	549.652398087332	790.382062686873	37.909891623354	322.852927861609	855.751707932717	34.513705286954	234.809897361994	941.158206256821	96.125152263912	251.901598565583	1066.558967852397	44.870008260967	213.179815113878	889.264276540102	1096.345541723668	28.132458675221	1041.436341561395	898.607411078793	-51.296601633315	899.691479143793	1112.711092960432	645.920611946547	963.594163131128	858.986649805944	647.075452767813	
2	20.643214285714	733.471379637980	1011.867289551463	391.791707760551	897.845596407146	1432.258344538329	178.726770391453	1017.467926166862	1370.269702051980	330.465268419491	953.054419056909	1450.377944186235	510.375756379969	898.785794593266	1499.600795050919	343.024659436984	970.385464225669	946.183013430005	484.786132430251	929.978508961448	966.469719994452	214.060616914417	1037.950536119054	765.859678911079	457.067774484412	991.593839794709	647.716560158405	536.429790475168	1074.730790604227	601.014545043849	454.218413923183	1085.504963434840	488.426925542524	478.233683929815	973.067794273727	751.633471401242	230.014094321505	873.102997718287	639.392096887710	184.031158479706	964.482556082698	559.442236390357	231.648439639564	963.625545227477	491.364959347700	240.297484651362	937.127237368810	419.939856499518	236.857991871313	841.242540719914	304.739492326246	199.899388988549	904.886218510454	194.489313811048	263.878124065913	1006.996524216606	417.919792379774	488.527238673770	887.270250761147	382.399038497026	554.299318418042	868.213720278478	273.654677629809	506.800977147136	664.307373159346	211.752074843920	487.835879266994	836.762694193868	159.458426587134	524.204978213069	727.584474818167	154.367194806479	559.417933778194	904.297290484906	47.136189100624	547.289852067530	784.667260674556	37.912383692248	322.836708219748	850.142347281640	34.545285858403	234.832251675604	935.585765955980	96.031337115720	252.133740222117	1060.977578022647	44.662542996180	213.198475059693	893.872522204506	1096.950709847019	25.819460624971	1053.205336922274	906.057608130458	-54.583630423555	889.506685004706	1115.598434872862	645.939713785928	945.889625647441	860.444218472255	648.287049042561	
3	20.656428571429	731.735808975850	1012.149243784456	390.508148086600	898.509911301126	1431.838410326082	177.816110117011	1016.576553587875	1370.373242565443	330.921419940855	950.513926357244	1451.035757712165	509.924654682040	898.236091121067	1499.703644728498	342.055149602287	967.876909795380	946.929706683671	485.476932302266	929.971020704975	966.582435485891	214.531535985389	1038.141406478153	769.278555089887	456.437593252737	995.260980318029	650.358591838000	536.032340590936	1078.527584360852	605.417475740236	452.816663103986	1092.120933023292	492.860710944361	476.688295649990	971.632110049458	750.828437082677	231.760147787615	871.154590637113	639.426961677531	184.594271483408	960.931303928230	558.732179777179	233.711278739611	959.248390650857	490.944654498600	242.594250353020	932.928111253035	419.723679175857	238.440736136947	837.425812562760	304.717891557903	200.150443661444	899.984085911212	194.293715203052	264.730182552914	1014.488611449569	421.018142271235	487.065595032032	895.244403098317	383.497947166743	552.642661163483	877.880208422825	274.499531444104	504.840728601351	674.884798936145	209.699322745481	485.596144471834	848.083494326060	159.674728407617	521.981300790697	738.921167135006	153.092309328032	557.189692107544	917.176346755858	48.225352307587	544.968916468665	778.991223040627	37.909432223569	322.823884562244	844.568155076801	34.571820817660	234.854561951680	930.050288615370	95.937662258275	252.364549591371	1055.434405373055	44.459105103332	213.219433396958	898.348787313128	1097.531488625418	23.591813671083	1064.778594582451	913.505137266487	-57.685473668480	879.464734568127	1118.447701542444	645.963113713300	928.499708297766	861.931416354610	649.542008704625	
4	20.669642857143	729.963416676980	1012.425131592991	389.207875513168	899.280885615636	1431.414324649114	177.005821911808	1015.753389439739	1370.417795502361	331.471406847759	948.039803076558	1451.627393081503	509.565250993958	897.764869028669	1499.774314862025	341.191329007092	965.336359182951	947.642203494711	486.241287022214	929.998648016091	966.640471822985	215.083957516383	1038.216418480959	772.601885038533	455.935487439576	998.659509783243	652.935422383076	535.704999382537	1082.044060174528	609.697346120869	451.545466839677	1098.363213232745	497.255001579858	475.296920789301	970.225749095835	750.027588680740	233.608183925790	869.298481632662	639.450485928431	185.140670344300	957.460439092751	558.034167625998	235.748627186397	954.964255977825	490.511285951374	244.830622234945	928.800432045086	419.491287405915	239.979845524689	833.664351067026	304.691642587467	200.406401216471	895.137278534930	194.087929398311	265.562714954395	1021.753151704484	424.027334984140	485.738563533280	903.091307987446	384.291120361845	551.126317764920	887.602975503917	275.034420854202	503.025677640029	685.640778804013	206.973827057455	483.532786051298	859.682674828673	159.554002957177	519.896696072385	750.569624080060	151.272482844873	555.133128158994	930.545676720409	49.128638343456	542.770065948026	773.391172672241	37.899676830580	322.817082733958	839.061635156915	34.591512538095	234.876112766727	924.585329954517	95.845657544043	252.591087504399	1049.962675976869	44.263438228370	213.244845206442	902.566340757035	1098.067518818332	21.544863499589	1075.928163625959	920.906756024227	-60.400617518861	869.754348205624	1121.195142948150	645.996148554453	911.800832024999	863.448316167782	650.872705050296	
5	20.682857142857	728.151342092978	1012.692809108558	387.889726968694	900.213308368352	1430.987195525982	176.347461493468	1015.031273521233	1370.378553396303	332.164603233293	945.659514156311	1452.124312995093	509.342957829864	897.410396604984	1499.801849654321	340.483735888327	962.751527379556	948.305576888748	487.113921642169	930.069256666934	966.626163177135	215.751172064576	1038.112581562429	775.771962643970	455.626365397878	1001.640353469119	655.396994324689	535.485013234373	1085.133645980809	613.774877712097	450.478752819705	1104.043291796095	501.574088539492	474.136815448925	968.848831787143	749.230946987036	235.579138502434	867.542528498107	639.459926477576	185.665031581973	954.077702185681	557.351733589535	237.741827084683	950.784956319141	490.062884678081	246.975442461709	924.750013582197	419.240125909499	241.454804695456	829.955798516517	304.661111785677	200.667909100894	890.347963418381	193.871475021192	266.365624866980	1028.677589435096	426.898838099582	484.614200975495	910.776108148318	384.628041912434	549.827505918595	897.446215795626	275.126513789831	501.433241215747	696.752163220478	203.258355029357	481.732984405055	871.743659822751	158.970953764700	518.029236451877	762.754368343736	148.672300850568	553.334125292654	944.682203938370	49.826824580848	540.768838390936	767.879681044551	37.883394076056	322.816879739024	833.631767692843	34.603417216087	234.896362783424	919.200342635723	95.757169018311	252.810731423717	1044.571211544898	44.079464577509	213.276130481628	906.434636213481	1098.544763112215	19.755186279599	1086.483307857633	928.235070326258	-62.561382875559	860.525113025167	1123.780747158122	646.040538311026	896.085116687502	864.982306429393	652.310794197724	
6	20.696071428571	726.308000868494	1012.950445574405	386.557127609408	901.352212369648	1430.559610119537	175.884150938949	1014.436006447691	1370.238160319255	333.042889885096	943.391894429798	1452.505576213119	509.294702090432	897.202917539730	1499.780276860134	339.971811439760	960.115663738220	948.908593166877	488.121843436123	930.183570920088	966.531056342537	216.555865762925	1037.776465231085	778.735209718733	455.564358716814	1004.074644819192	657.692153221244	535.405149748495	1087.673189299836	617.574308517550	449.680983501199	1109.006730325730	505.778486104299	473.269765570646	967.492935117037	748.437334045357	237.670489066840	865.869716214667	639.454585574465	186.164998134691	950.770179039427	556.686143382258	239.671112885878	946.700865515343	489.601012073393	249.001887173705	920.763567765807	418.971186793560	242.849064290318	826.279793638838	304.628133846365	200.934339868018	885.602751777610	193.646638170393	267.130095052203	1035.169944375276	429.590272142259	483.747608949846	918.285109598891	384.387945090758	548.812818140054	907.480563799582	274.681522958088	500.129406280824	708.409302690211	198.309357269197	480.267176273601	884.436924552231	157.848686169337	516.447417067674	775.692707438526	145.123270178338	551.861543401648	959.824036037947	50.345094432787	539.034428465445	762.452365990518	37.862548483157	322.821837013986	828.271612200083	34.607835690333	234.914949153136	913.888067576581	95.674288906828	253.021006347327	1039.251910660792	43.911052002053	213.313795932117	909.902947859258	1098.956764920880	18.276826688714	1096.328056750732	935.464297094385	-64.046515520302	851.891655431970	1126.148457441871	646.095659473901	881.561595089026	866.505108792517	653.879488131183	
